<svg xmlns="http://www.w3.org/2000/svg" width="256" height="256" viewBox="0 0 256 256">
  <rect width="256" height="256" fill="none"/>
  <path d="M128,24A104,104,0,0,0,41.59,187.26L24,232l46.18-17.05A104,104,0,1,0,128,24Z" fill="#25D366"/>
  <path d="M128,48A80,80,0,0,1,201.36,168.62l4.36,1.46-8.31,22.51-2.87,7.78-8.06-3.24a80,80,0,0,1-96.93-122.74A79.42,79.42,0,0,1,128,48m0-24a104,104,0,0,0-86.41,163.26L24,232l46.18-17.05A104,104,0,1,0,128,24Z" fill="#fff"/>
  <path d="M104.8,88.15c-2.23-4.94-4.58-5-6.71-5.11s-3.68-.11-5.65-.11a10.91,10.91,0,0,0-7.87,3.68c-2.71,2.95-10.39,10.15-10.39,24.74s10.64,28.67,12.14,30.64S100,166.85,119.4,175.52c14.87,6.5,17.87,5.21,21.11,4.89s10.41-4.25,11.87-8.36,1.46-7.63,1-8.36-1.61-1.18-3.35-2.07-10.41-5.12-12-5.71-2.77-.89-3.93.9-4.5,5.71-5.51,6.9-2,1.34-3.77.45-7.35-2.7-14-8.61c-5.16-4.6-8.65-10.3-9.66-12s-.11-2.68.76-3.57c.77-.78,1.7-2,2.56-3s1.14-1.68,1.71-2.79.29-2.09-.1-2.91S107,93.09,104.8,88.15Z" fill="#25D366"/>
</svg>